<mxfile host="app.diagrams.net" modified="2024-01-17T10:44:18.351Z" agent="Mozilla/5.0 (Macintosh; Intel Mac OS X 10.15; rv:121.0) Gecko/20100101 Firefox/121.0" etag="eeYx_fBULZIsYu06RuHt" version="22.1.18" type="github">
  <diagram name="Sayfa -1" id="Ott_ABJXuiEzQ8gEiwA2">
    <mxGraphModel dx="1224" dy="722" grid="1" gridSize="10" guides="1" tooltips="1" connect="1" arrows="1" fold="1" page="1" pageScale="1" pageWidth="827" pageHeight="1169" math="0" shadow="0">
      <root>
        <mxCell id="0" />
        <mxCell id="1" parent="0" />
        <mxCell id="wErRC4PvLsqGT4nxYO_4-52" style="edgeStyle=orthogonalEdgeStyle;rounded=0;orthogonalLoop=1;jettySize=auto;html=1;exitX=1;exitY=0.5;exitDx=0;exitDy=0;" edge="1" parent="1" source="wErRC4PvLsqGT4nxYO_4-53">
          <mxGeometry relative="1" as="geometry">
            <mxPoint x="320" y="60" as="targetPoint" />
          </mxGeometry>
        </mxCell>
        <mxCell id="wErRC4PvLsqGT4nxYO_4-53" value="Trafik Hesabı" style="rounded=0;whiteSpace=wrap;html=1;" vertex="1" parent="1">
          <mxGeometry x="60" y="40" width="200" height="40" as="geometry" />
        </mxCell>
        <mxCell id="wErRC4PvLsqGT4nxYO_4-54" value="Sözleşme" style="rounded=0;whiteSpace=wrap;html=1;" vertex="1" parent="1">
          <mxGeometry x="320" y="40" width="200" height="40" as="geometry" />
        </mxCell>
        <mxCell id="wErRC4PvLsqGT4nxYO_4-55" style="edgeStyle=orthogonalEdgeStyle;rounded=0;orthogonalLoop=1;jettySize=auto;html=1;exitX=0.5;exitY=1;exitDx=0;exitDy=0;entryX=0.5;entryY=0;entryDx=0;entryDy=0;" edge="1" parent="1" source="wErRC4PvLsqGT4nxYO_4-56" target="wErRC4PvLsqGT4nxYO_4-85">
          <mxGeometry relative="1" as="geometry" />
        </mxCell>
        <mxCell id="wErRC4PvLsqGT4nxYO_4-56" value="Avan Projesi" style="rounded=0;whiteSpace=wrap;html=1;" vertex="1" parent="1">
          <mxGeometry x="580" y="40" width="200" height="40" as="geometry" />
        </mxCell>
        <mxCell id="wErRC4PvLsqGT4nxYO_4-57" style="edgeStyle=orthogonalEdgeStyle;rounded=0;orthogonalLoop=1;jettySize=auto;html=1;exitX=0.5;exitY=1;exitDx=0;exitDy=0;entryX=0;entryY=0.5;entryDx=0;entryDy=0;" edge="1" parent="1" source="wErRC4PvLsqGT4nxYO_4-58" target="wErRC4PvLsqGT4nxYO_4-62">
          <mxGeometry relative="1" as="geometry" />
        </mxCell>
        <mxCell id="wErRC4PvLsqGT4nxYO_4-58" value="Yeşil Renkli Bilgi Etiketi" style="rounded=0;whiteSpace=wrap;html=1;" vertex="1" parent="1">
          <mxGeometry x="200" y="280" width="160" height="40" as="geometry" />
        </mxCell>
        <mxCell id="wErRC4PvLsqGT4nxYO_4-59" value="" style="edgeStyle=orthogonalEdgeStyle;rounded=0;orthogonalLoop=1;jettySize=auto;html=1;" edge="1" parent="1" source="wErRC4PvLsqGT4nxYO_4-60" target="wErRC4PvLsqGT4nxYO_4-69">
          <mxGeometry relative="1" as="geometry" />
        </mxCell>
        <mxCell id="wErRC4PvLsqGT4nxYO_4-60" value="Diğer Renkli Bilgi Etiketleri" style="rounded=0;whiteSpace=wrap;html=1;" vertex="1" parent="1">
          <mxGeometry x="480" y="280" width="160" height="40" as="geometry" />
        </mxCell>
        <mxCell id="wErRC4PvLsqGT4nxYO_4-62" value="Tescil" style="rounded=0;whiteSpace=wrap;html=1;" vertex="1" parent="1">
          <mxGeometry x="320" y="520" width="200" height="40" as="geometry" />
        </mxCell>
        <mxCell id="wErRC4PvLsqGT4nxYO_4-63" style="edgeStyle=orthogonalEdgeStyle;rounded=0;orthogonalLoop=1;jettySize=auto;html=1;exitX=0.5;exitY=1;exitDx=0;exitDy=0;entryX=0.5;entryY=0;entryDx=0;entryDy=0;" edge="1" parent="1" source="wErRC4PvLsqGT4nxYO_4-64" target="wErRC4PvLsqGT4nxYO_4-62">
          <mxGeometry relative="1" as="geometry" />
        </mxCell>
        <mxCell id="wErRC4PvLsqGT4nxYO_4-64" value="Yeşil Renkli Bilgi Etiketi" style="rounded=0;whiteSpace=wrap;html=1;" vertex="1" parent="1">
          <mxGeometry x="380" y="440" width="160" height="40" as="geometry" />
        </mxCell>
        <mxCell id="wErRC4PvLsqGT4nxYO_4-65" style="edgeStyle=orthogonalEdgeStyle;rounded=0;orthogonalLoop=1;jettySize=auto;html=1;exitX=1;exitY=0.5;exitDx=0;exitDy=0;entryX=1;entryY=0.5;entryDx=0;entryDy=0;" edge="1" parent="1" source="wErRC4PvLsqGT4nxYO_4-66" target="wErRC4PvLsqGT4nxYO_4-91">
          <mxGeometry relative="1" as="geometry" />
        </mxCell>
        <mxCell id="wErRC4PvLsqGT4nxYO_4-66" value="Diğer Renkli Bilgi Etiketleri" style="rounded=0;whiteSpace=wrap;html=1;" vertex="1" parent="1">
          <mxGeometry x="580" y="440" width="160" height="40" as="geometry" />
        </mxCell>
        <mxCell id="wErRC4PvLsqGT4nxYO_4-67" style="edgeStyle=orthogonalEdgeStyle;rounded=0;orthogonalLoop=1;jettySize=auto;html=1;exitX=0.5;exitY=1;exitDx=0;exitDy=0;" edge="1" parent="1" source="wErRC4PvLsqGT4nxYO_4-69" target="wErRC4PvLsqGT4nxYO_4-64">
          <mxGeometry relative="1" as="geometry" />
        </mxCell>
        <mxCell id="wErRC4PvLsqGT4nxYO_4-68" style="edgeStyle=orthogonalEdgeStyle;rounded=0;orthogonalLoop=1;jettySize=auto;html=1;exitX=0.5;exitY=1;exitDx=0;exitDy=0;entryX=0.5;entryY=0;entryDx=0;entryDy=0;" edge="1" parent="1" source="wErRC4PvLsqGT4nxYO_4-69" target="wErRC4PvLsqGT4nxYO_4-66">
          <mxGeometry relative="1" as="geometry" />
        </mxCell>
        <mxCell id="wErRC4PvLsqGT4nxYO_4-69" value="&lt;div&gt;Takip Kontrolü&lt;/div&gt;" style="rounded=0;whiteSpace=wrap;html=1;" vertex="1" parent="1">
          <mxGeometry x="480" y="360" width="160" height="40" as="geometry" />
        </mxCell>
        <mxCell id="wErRC4PvLsqGT4nxYO_4-75" value="Yapı Ruhsatı Verilmesi" style="text;html=1;strokeColor=none;fillColor=none;align=center;verticalAlign=middle;whiteSpace=wrap;rounded=0;" vertex="1" parent="1">
          <mxGeometry x="454" y="85" width="160" height="30" as="geometry" />
        </mxCell>
        <mxCell id="wErRC4PvLsqGT4nxYO_4-84" style="edgeStyle=orthogonalEdgeStyle;rounded=0;orthogonalLoop=1;jettySize=auto;html=1;exitX=0;exitY=0.5;exitDx=0;exitDy=0;" edge="1" parent="1" source="wErRC4PvLsqGT4nxYO_4-85">
          <mxGeometry relative="1" as="geometry">
            <mxPoint x="520" y="140" as="targetPoint" />
          </mxGeometry>
        </mxCell>
        <mxCell id="wErRC4PvLsqGT4nxYO_4-85" value="Uygulama Projesi" style="rounded=0;whiteSpace=wrap;html=1;" vertex="1" parent="1">
          <mxGeometry x="580" y="120" width="200" height="40" as="geometry" />
        </mxCell>
        <mxCell id="wErRC4PvLsqGT4nxYO_4-86" style="edgeStyle=orthogonalEdgeStyle;rounded=0;orthogonalLoop=1;jettySize=auto;html=1;exitX=1;exitY=0.5;exitDx=0;exitDy=0;" edge="1" parent="1">
          <mxGeometry relative="1" as="geometry">
            <mxPoint x="520" y="59.5" as="sourcePoint" />
            <mxPoint x="580" y="59.5" as="targetPoint" />
          </mxGeometry>
        </mxCell>
        <mxCell id="wErRC4PvLsqGT4nxYO_4-87" style="edgeStyle=orthogonalEdgeStyle;rounded=0;orthogonalLoop=1;jettySize=auto;html=1;exitX=0.5;exitY=1;exitDx=0;exitDy=0;entryX=0.5;entryY=0;entryDx=0;entryDy=0;" edge="1" parent="1" source="wErRC4PvLsqGT4nxYO_4-88" target="wErRC4PvLsqGT4nxYO_4-91">
          <mxGeometry relative="1" as="geometry" />
        </mxCell>
        <mxCell id="wErRC4PvLsqGT4nxYO_4-88" value="Montaj İşlemleri" style="rounded=0;whiteSpace=wrap;html=1;" vertex="1" parent="1">
          <mxGeometry x="320" y="120" width="200" height="40" as="geometry" />
        </mxCell>
        <mxCell id="wErRC4PvLsqGT4nxYO_4-89" style="edgeStyle=orthogonalEdgeStyle;rounded=0;orthogonalLoop=1;jettySize=auto;html=1;exitX=0.5;exitY=1;exitDx=0;exitDy=0;" edge="1" parent="1" source="wErRC4PvLsqGT4nxYO_4-91" target="wErRC4PvLsqGT4nxYO_4-58">
          <mxGeometry relative="1" as="geometry">
            <Array as="points">
              <mxPoint x="420" y="260" />
              <mxPoint x="280" y="260" />
            </Array>
          </mxGeometry>
        </mxCell>
        <mxCell id="wErRC4PvLsqGT4nxYO_4-90" style="edgeStyle=orthogonalEdgeStyle;rounded=0;orthogonalLoop=1;jettySize=auto;html=1;exitX=0.5;exitY=1;exitDx=0;exitDy=0;" edge="1" parent="1" source="wErRC4PvLsqGT4nxYO_4-91" target="wErRC4PvLsqGT4nxYO_4-60">
          <mxGeometry relative="1" as="geometry">
            <Array as="points">
              <mxPoint x="420" y="260" />
              <mxPoint x="560" y="260" />
            </Array>
          </mxGeometry>
        </mxCell>
        <mxCell id="wErRC4PvLsqGT4nxYO_4-91" value="İlk Periyodik Kontrol" style="rounded=0;whiteSpace=wrap;html=1;" vertex="1" parent="1">
          <mxGeometry x="320" y="200" width="200" height="40" as="geometry" />
        </mxCell>
        <mxCell id="wErRC4PvLsqGT4nxYO_4-92" value="" style="endArrow=none;dashed=1;html=1;rounded=0;" edge="1" parent="1">
          <mxGeometry width="50" height="50" relative="1" as="geometry">
            <mxPoint x="780" y="100" as="sourcePoint" />
            <mxPoint x="602" y="100" as="targetPoint" />
          </mxGeometry>
        </mxCell>
      </root>
    </mxGraphModel>
  </diagram>
</mxfile>
